<svg xmlns="http://www.w3.org/2000/svg">
  <defs>
    <symbol id="available" viewBox="0 0 20 20" fill="currentcolor">
      <circle cx="10" cy="10" r="10" />
    </symbol>
    <symbol id="check" viewBox="0 0 24 25" fill="currentcolor">
      <path
        d="M10.1575 17.0119C10.5032 17.0119 10.8257 16.8736 11.0562 16.6432L18.3142 9.38513L16.517 7.58789L10.1575 13.9473L7.48473 11.2745L5.6875 13.0718L9.25893 16.6432C9.48934 16.8736 9.81192 17.0119 10.1575 17.0119Z" />
    </symbol>
    <symbol id="check-fill" viewBox="0 0 24 24" fill="currentcolor">
      <path
        d="M10.1575 16.8849C10.5032 16.8849 10.8257 16.7467 11.0562 16.5162L18.3142 9.25817L16.517 7.46094L10.1575 13.8204L7.48473 11.1476L5.6875 12.9448L9.25893 16.5162C9.48934 16.7467 9.81192 16.8849 10.1575 16.8849Z" />
    </symbol>
    <symbol id="error" viewBox="0 0 20 20" fill="currentcolor">
      <path
        d="M10.0141 -0.00109673C4.49115 -0.00109673 0.0141468 4.4759 0.0141468 9.9989C0.0141468 15.5219 4.49115 19.9989 10.0141 19.9989C15.5371 19.9989 20.0141 15.5219 20.0141 9.9989C20.0141 4.4759 15.5371 -0.00109673 10.0141 -0.00109673ZM10.0141 4.9989C10.5661 4.9989 11.0141 5.4469 11.0141 5.9989V10.9989C11.0141 11.5509 10.5661 11.9989 10.0141 11.9989C9.46215 11.9989 9.01415 11.5509 9.01415 10.9989V5.9989C9.01415 5.4469 9.46215 4.9989 10.0141 4.9989ZM10.0141 12.9989C10.5661 12.9989 11.0141 13.4469 11.0141 13.9989C11.0141 14.5509 10.5661 14.9989 10.0141 14.9989C9.46215 14.9989 9.01415 14.5509 9.01415 13.9989C9.01415 13.4469 9.46215 12.9989 10.0141 12.9989Z" />
    </symbol>
    <symbol id="plus" viewBox="0 0 15 15" fill="currentcolor">
      <path
        d="M7.69559 0.850788C8.17872 0.840217 8.57895 1.22331 8.58952 1.70644L8.70436 6.95519L13.9531 6.84035C14.4362 6.82978 14.8365 7.21286 14.847 7.696C14.8576 8.17913 14.4745 8.57936 13.9914 8.58993L8.74264 8.70477L8.85748 13.9535C8.86805 14.4366 8.48496 14.8369 8.00183 14.8474C7.51869 14.858 7.11847 14.4749 7.1079 13.9918L6.99306 8.74305L1.74431 8.85789C1.26118 8.86846 0.860955 8.48537 0.850384 8.00223C0.839813 7.5191 1.2229 7.11887 1.70603 7.1083L6.95478 6.99347L6.83994 1.74472C6.82937 1.26158 7.21246 0.861359 7.69559 0.850788Z" />
    </symbol>
    <symbol id="synced" viewBox="0 0 20 20" fill="currentcolor">
      <path
        d="M10.0142 0.0141163C4.49116 0.0141163 0.0141621 4.49132 0.0141621 10.0141C0.0141621 15.5371 4.49116 20.0141 10.0142 20.0141C15.5372 20.0141 20.0142 15.5371 20.0142 10.0141C20.0142 4.49132 15.5372 0.0141163 10.0142 0.0141163ZM10.0142 5.01412C10.5662 5.01412 11.0142 5.46182 11.0142 6.01412V11.0141H14.0142L10.0142 15.0141L6.01416 11.0141H9.01416V6.01412C9.01416 5.46182 9.46216 5.01412 10.0142 5.01412Z" />
    </symbol>
    <symbol id="syncing" viewBox="0 0 20 20" fill="currentcolor">
      <path
        d="M9.71901 0.00395616C7.11583 0.0772 4.6439 1.16304 2.82889 3.03057C1.01388 4.8981 -0.00102408 7.4 7.75429e-07 10.0042C0.00118655 12.6557 1.05531 15.1981 2.93059 17.0726C4.80588 18.947 7.34881 20 10.0003 20C12.6517 20 15.1947 18.947 17.07 17.0726C18.9452 15.1981 19.9994 12.6557 20.0005 10.0042C20.0011 8.66695 19.7334 7.34317 19.2133 6.11118C18.6933 4.87919 17.9314 3.76401 16.9728 2.83162C16.0142 1.89924 14.8783 1.16861 13.6324 0.682915C12.3864 0.197221 11.0557 -0.0336543 9.71901 0.00395616ZM10.0003 5.00406C11.3803 5.00406 12.6246 5.51032 13.5316 6.41035L15.0004 5.00406V9.0042H14.9067H13.3129H11.0004L12.4379 7.50416C11.8209 6.90414 10.9696 6.5041 10.0316 6.5041C8.48253 6.5041 7.19525 7.60412 6.75024 9.0042H5.09394C5.55995 6.70414 7.58421 5.00406 10.0003 5.00406ZM5.00014 11.0043H5.09384H6.68763H9.0002L7.56266 12.4105C8.17967 13.0106 9.03094 13.4106 9.96897 13.4106C11.518 13.4106 12.8053 12.4043 13.2503 11.0043H14.9066C14.4406 13.2043 12.4163 15.0043 10.0002 15.0043C8.62019 15.0043 7.3759 14.4043 6.46888 13.5043L5.00009 15.0043L5.00014 11.0043Z" />
    </symbol>
    <symbol id="xmark" viewBox="0 0 24 24" fill="currentcolor">
      <path fill-rule="evenodd" clip-rule="evenodd"
        d="M16.9993 8.51506L15.4844 7L11.9994 10.4852L8.51497 7.00057L7 8.51562L10.4844 12.0003L7.00056 15.4843L8.51552 16.9994L11.9994 13.5153L15.4838 17L16.9988 15.4849L13.5144 12.0003L16.9993 8.51506Z"
      />
    </symbol>
  </defs>
</svg>